# xmcd
#
# Track frame offsets:
#	150
#	16286
#	28457
#	48359
#	65768
#	74793
#	86082
#	103798
#	118840
#	131444
#
# Disc length: 1964 seconds
#
# Revision: 0
# Processed by: cddbd v1.5.2PL0 Copyright (c) Steve Scherf et al.
# Submitted via: audiograbber 1.83.01
#
DISCID=9807aa0a
DTITLE=Emma get wild - Hey hurricane
DYEAR=2006
DGENRE=Country
TTITLE0=At the time
TTITLE1=All my sums
TTITLE2=The witch
TTITLE3=La ultima
TTITLE4=Worst intentions
TTITLE5=What is it i want?
TTITLE6=Supersigh
TTITLE7=Too Many Questions
TTITLE8=Something moore
TTITLE9=Half Empty
EXTD=
EXTT0=
EXTT1=
EXTT2=
EXTT3=
EXTT4=
EXTT5=
EXTT6=
EXTT7=
EXTT8=
EXTT9=
PLAYORDER=
